<svg width="256" height="256" viewBox="0 0 256 256" fill="none" xmlns="http://www.w3.org/2000/svg">
  <defs>
    <linearGradient id="bgGrad" x1="0" y1="0" x2="256" y2="256" gradientUnits="userSpaceOnUse">
      <stop stop-color="#0B0D12"/>
      <stop offset="1" stop-color="#18181B"/>
    </linearGradient>
    <linearGradient id="iconGrad" x1="50" y1="60" x2="206" y2="220" gradientUnits="userSpaceOnUse">
      <stop stop-color="#FCD34D"/>
      <stop offset="1" stop-color="#F59E0B"/>
    </linearGradient>
    <filter id="glow" x="-20%" y="-20%" width="140%" height="140%" filterUnits="userSpaceOnUse">
      <feGaussianBlur stdDeviation="8" result="blur"/>
      <feComposite in="SourceGraphic" in2="blur" operator="over"/>
    </filter>
  </defs>
  
  <!-- App Icon Shape -->
  <rect width="256" height="256" rx="64" fill="url(#bgGrad)"/>
  <rect width="254" height="254" x="1" y="1" rx="63" stroke="rgba(255,255,255,0.1)" stroke-width="2"/>
  
  <!-- Relay Pulse Mark (Scaled up from Sidebar.tsx) -->
  <g transform="translate(48, 48) scale(6.66)">
    <path
      d="M15 6C17.2091 6 19 7.79086 19 10V14C19 16.2091 17.2091 18 15 18M9 18C6.79086 18 5 16.2091 5 14V10C5 7.79086 6.79086 6 9 6"
      stroke="url(#iconGrad)"
      stroke-width="2.5"
      stroke-linecap="round"
      filter="url(#glow)"
    />
    <path
      d="M8 12H16"
      stroke="url(#iconGrad)"
      stroke-width="2.5"
      stroke-linecap="round"
    />
    <circle cx="12" cy="12" r="1.5" fill="white">
      <animate attributeName="opacity" values="1;0.4;1" dur="2s" repeatCount="indefinite" />
    </circle>
  </g>
</svg>
