<svg width="512" height="512" viewBox="0 0 512 512" fill="none" xmlns="http://www.w3.org/2000/svg">
  <defs>
    <linearGradient id="accent_gradient" x1="0" y1="0" x2="512" y2="512" gradientUnits="userSpaceOnUse">
      <stop offset="0" stop-color="#60A5FA"/>
      <stop offset="1" stop-color="#3B82F6"/>
    </linearGradient>
    <filter id="glow" x="-50%" y="-50%" width="200%" height="200%">
      <feGaussianBlur stdDeviation="8" result="blur"/>
      <feComposite in="SourceGraphic" in2="blur" operator="over"/>
    </filter>
  </defs>

  <!-- Icon Graphics (centered, no background) -->
  <g transform="translate(88, 88) scale(14)" stroke="url(#accent_gradient)" stroke-width="1.8" stroke-linecap="round" stroke-linejoin="round" fill="none">
    <!-- Outer Brackets/Links -->
    <path d="M16 6c2 0 3.5 1.5 3.5 3.5v5c0 2-1.5 3.5-3.5 3.5" filter="url(#glow)" stroke-opacity="0.6" />
    <path d="M16 6c2 0 3.5 1.5 3.5 3.5v5c0 2-1.5 3.5-3.5 3.5" />

    <path d="M8 18c-2 0-3.5-1.5-3.5-3.5v-5C4.5 7.5 6 6 8 6" filter="url(#glow)" stroke-opacity="0.6" />
    <path d="M8 18c-2 0-3.5-1.5-3.5-3.5v-5C4.5 7.5 6 6 8 6" />

    <!-- Center Connection -->
    <path d="M7 12h10" />

    <!-- Central Node -->
    <circle cx="12" cy="12" r="1.5" fill="url(#accent_gradient)" stroke="none" />
  </g>
</svg>
